<svg xmlns="http://www.w3.org/2000/svg" viewBox="0 0 512 512" width="512" height="512">
  <defs>
    <linearGradient id="bg" x1="0" y1="0" x2="0" y2="1">
      <stop offset="0%" stop-color="#FBF8F3"/>
      <stop offset="100%" stop-color="#F0EBE3"/>
    </linearGradient>
    <linearGradient id="teal" x1="0.5" y1="0" x2="0.5" y2="1">
      <stop offset="0%" stop-color="#30C9BA"/>
      <stop offset="45%" stop-color="#26A69A"/>
      <stop offset="100%" stop-color="#1E8F82"/>
    </linearGradient>
  </defs>
  <rect width="512" height="512" rx="114" fill="url(#bg)"/>
  <path d="M 190 120 L 322 120 C 334 120, 342 128, 342 140 L 342 160 C 342 208, 312 244, 276 260 L 264 266 L 264 270 L 276 276 C 312 292, 342 328, 342 376 L 342 392 C 342 404, 334 412, 322 412 L 190 412 C 178 412, 170 404, 170 392 L 170 376 C 170 328, 200 292, 236 276 L 248 270 L 248 266 L 236 260 C 200 244, 170 208, 170 160 L 170 140 C 170 128, 178 120, 190 120 Z" fill="url(#teal)"/>
</svg>